<?xml version="1.0" standalone="no"?>
<!DOCTYPE svg PUBLIC "-//W3C//DTD SVG 20010904//EN"
 "http://www.w3.org/TR/2001/REC-SVG-20010904/DTD/svg10.dtd">
<svg version="1.0" xmlns="http://www.w3.org/2000/svg"
 width="512.000000pt" height="512.000000pt" viewBox="0 0 512.000000 512.000000"
 preserveAspectRatio="xMidYMid meet">

<g transform="translate(0.000000,512.000000) scale(0.100000,-0.100000)"
fill="#000000" stroke="none">
<path d="M2000 4790 c-848 -66 -1522 -398 -1653 -814 l-22 -71 0 -1410 c0
-1363 1 -1412 19 -1460 47 -124 143 -230 300 -333 328 -216 853 -350 1479
-378 l157 -7 0 142 0 141 -84 0 c-116 0 -367 18 -511 36 -572 73 -986 246
-1071 449 -11 26 -14 86 -14 259 l0 226 71 -46 c197 -128 539 -244 891 -303
109 -19 374 -51 421 -51 15 0 17 13 17 139 l0 138 -92 7 c-341 24 -718 103
-943 197 -167 69 -306 174 -345 261 -18 39 -20 67 -20 270 l0 228 62 -41 c274
-178 727 -305 1266 -354 l72 -7 0 139 0 139 -145 12 c-652 57 -1147 243 -1241
467 -12 28 -14 84 -12 290 l3 254 80 -55 c104 -72 182 -116 295 -165 899 -389
2217 -310 2910 175 l65 45 3 -184 2 -185 141 0 140 0 -3 488 c-4 557 -3 551
-96 693 -218 332 -744 571 -1437 654 -157 19 -547 27 -705 15z m581 -281 c559
-43 1026 -200 1246 -417 32 -32 74 -86 93 -122 32 -60 35 -72 35 -150 0 -78
-3 -90 -34 -148 -177 -325 -851 -552 -1641 -552 -925 0 -1680 314 -1680 700 0
296 441 556 1117 660 252 38 598 50 864 29z"/>
<path d="M3304 2821 c-69 -32 -88 -69 -94 -188 l-5 -102 -90 -44 c-49 -25
-118 -65 -153 -91 -34 -25 -66 -46 -71 -46 -5 0 -59 29 -122 65 -85 49 -122
65 -151 65 -48 0 -97 -20 -124 -51 -37 -43 -205 -347 -211 -384 -7 -46 20
-117 56 -147 15 -13 71 -48 123 -78 l96 -55 -6 -50 c-9 -64 -9 -206 0 -270 l6
-50 -96 -55 c-52 -30 -108 -65 -123 -78 -36 -30 -63 -101 -56 -147 3 -19 50
-112 103 -206 115 -201 138 -224 224 -224 51 0 66 6 170 66 l113 66 66 -50
c36 -28 107 -70 156 -94 l90 -44 5 -102 c4 -87 9 -107 29 -136 44 -62 81 -71
301 -71 183 0 199 1 240 22 68 35 90 81 90 194 l0 91 93 45 c50 25 122 67 158
95 l66 50 111 -65 c131 -76 176 -86 239 -53 49 25 57 34 166 226 96 169 107
205 82 270 -20 55 -46 77 -169 146 l-96 54 8 55 c9 70 9 189 0 260 l-8 55 110
63 c116 67 142 91 161 149 18 57 5 94 -92 266 -102 180 -120 203 -166 223 -64
27 -101 19 -223 -51 -63 -36 -117 -65 -121 -65 -4 0 -41 24 -81 53 -40 28
-110 69 -156 90 l-82 39 0 91 c0 114 -21 160 -90 195 -41 21 -57 22 -240 22
-169 0 -201 -3 -236 -19z m363 -283 c21 -20 23 -30 23 -119 l0 -98 43 -11
c114 -29 255 -106 337 -185 l45 -44 114 65 c62 35 126 64 141 64 33 0 57 -25
109 -115 66 -112 59 -125 -99 -214 -85 -48 -110 -66 -106 -79 25 -88 30 -122
30 -222 0 -100 -5 -134 -30 -222 -4 -13 21 -31 106 -78 158 -88 165 -103 99
-215 -52 -89 -76 -115 -108 -115 -14 0 -78 29 -141 64 l-114 65 -46 -43 c-89
-83 -188 -140 -308 -176 l-72 -22 0 -96 c0 -85 -3 -98 -22 -119 -20 -21 -30
-23 -128 -23 -101 0 -108 1 -130 25 -20 22 -24 39 -29 121 l-6 96 -70 22
c-116 37 -214 94 -295 172 l-45 43 -115 -64 c-63 -36 -127 -65 -141 -65 -32 0
-56 26 -108 115 -67 114 -61 125 107 220 76 43 101 62 98 74 -25 87 -30 121
-30 221 0 100 5 134 30 222 4 13 -21 31 -106 79 -112 62 -140 87 -140 122 0
25 75 162 103 188 34 31 69 23 188 -45 l113 -64 64 58 c69 64 202 138 295 165
l57 16 0 79 c0 84 11 126 38 146 11 9 52 13 121 14 94 0 107 -2 128 -22z"/>
<path d="M3450 1990 c-71 -15 -148 -58 -205 -115 -164 -164 -164 -426 0 -590
237 -237 637 -112 705 220 39 190 -76 396 -261 466 -59 23 -176 32 -239 19z
m158 -290 c94 -57 94 -183 0 -240 -117 -71 -259 71 -188 188 42 68 124 91 188
52z"/>
</g>
</svg>
